# This file uses centimeters as units for non-parametric coordinates.

mtllib PolarBear.mtl
g default
v 520.000025 339.999912 -70.000000
v 520.000000 199.999917 -70.000000
v 520.000025 339.999912 70.000000
v 520.000000 199.999917 70.000000
v 380.000021 339.999937 -70.000000
v 380.000000 199.999933 -70.000000
v 380.000021 339.999937 70.000000
v 380.000000 199.999933 70.000000
vt 0.054688 0.781250
vt 0.109375 0.781250
vt 0.164062 0.781250
vt 0.218750 0.781250
vt 0.000000 0.781250
vt 0.218750 0.890625
vt 0.000000 0.890625
vt 0.054688 0.890625
vt 0.109375 0.890625
vt 0.109375 0.890625
vt 0.164062 0.890625
vt 0.164062 0.890625
vt 0.054688 1.000000
vt 0.109375 1.000000
vt 0.109375 1.000000
vt 0.164062 1.000000
vn 0.000000 1.000000 0.000000
vn 0.000000 1.000000 0.000000
vn 0.000000 1.000000 0.000000
vn 0.000000 1.000000 0.000000
vn 0.000000 -0.000000 1.000000
vn 0.000000 -0.000000 1.000000
vn 0.000000 -0.000000 1.000000
vn 0.000000 -0.000000 1.000000
vn -1.000000 0.000000 0.000000
vn -1.000000 0.000000 0.000000
vn -1.000000 0.000000 0.000000
vn -1.000000 0.000000 0.000000
vn -0.000000 -1.000000 -0.000000
vn -0.000000 -1.000000 -0.000000
vn -0.000000 -1.000000 -0.000000
vn -0.000000 -1.000000 -0.000000
vn 1.000000 -0.000000 -0.000000
vn 1.000000 -0.000000 -0.000000
vn 1.000000 -0.000000 -0.000000
vn 1.000000 -0.000000 -0.000000
vn 0.000000 0.000000 -1.000000
vn 0.000000 0.000000 -1.000000
vn 0.000000 0.000000 -1.000000
vn 0.000000 0.000000 -1.000000
s off
g Head
usemtl HeadSG
f 1/10/1 5/14/2 7/13/3 3/8/4
f 4/1/5 3/8/6 7/7/7 8/5/8
f 8/4/9 7/6/10 5/12/11 6/3/12
f 6/15/13 2/9/14 4/11/15 8/16/16
f 2/2/17 1/10/18 3/8/19 4/1/20
f 6/3/21 5/12/22 1/10/23 2/2/24
g default
v 459.999987 319.999924 90.000005
v 459.999994 359.999924 90.000005
v 459.999987 319.999924 50.000004
v 459.999994 359.999924 50.000004
v 479.999987 319.999919 90.000005
v 479.999993 359.999920 90.000005
v 479.999987 319.999919 50.000004
v 479.999993 359.999920 50.000004
vt 0.210937 0.953125
vt 0.226562 0.953125
vt 0.234375 0.953125
vt 0.250000 0.953125
vt 0.203125 0.953125
vt 0.203125 0.984375
vt 0.210938 0.984375
vt 0.226562 0.984375
vt 0.226562 0.984375
vt 0.234375 0.984375
vt 0.242187 0.984375
vt 0.250000 0.984375
vt 0.210938 1.000000
vt 0.226562 1.000000
vt 0.226563 1.000000
vt 0.242187 1.000000
vn -1.000000 0.000000 0.000000
vn -1.000000 0.000000 0.000000
vn -1.000000 0.000000 0.000000
vn -1.000000 0.000000 0.000000
vn 0.000000 0.000000 -1.000000
vn 0.000000 0.000000 -1.000000
vn 0.000000 0.000000 -1.000000
vn 0.000000 0.000000 -1.000000
vn 1.000000 -0.000000 -0.000000
vn 1.000000 -0.000000 -0.000000
vn 1.000000 -0.000000 -0.000000
vn 1.000000 -0.000000 -0.000000
vn 0.000000 -0.000000 1.000000
vn 0.000000 -0.000000 1.000000
vn 0.000000 -0.000000 1.000000
vn 0.000000 -0.000000 1.000000
vn -0.000000 -1.000000 -0.000000
vn -0.000000 -1.000000 -0.000000
vn -0.000000 -1.000000 -0.000000
vn -0.000000 -1.000000 -0.000000
vn 0.000000 1.000000 0.000000
vn 0.000000 1.000000 0.000000
vn 0.000000 1.000000 0.000000
vn 0.000000 1.000000 0.000000
s off
g REar
usemtl HeadSG
f 9/20/25 10/28/26 12/26/27 11/19/28
f 11/19/29 12/26/30 16/25/31 15/18/32
f 15/18/33 16/25/34 14/23/35 13/17/36
f 13/17/37 14/23/38 10/22/39 9/21/40
f 11/30/41 15/24/42 13/27/43 9/32/44
f 16/25/45 12/31/46 10/29/47 14/23/48
g default
v 459.999987 319.999924 -50.000002
v 459.999994 359.999924 -50.000002
v 459.999987 319.999924 -90.000002
v 459.999994 359.999924 -90.000002
v 479.999987 319.999919 -50.000002
v 479.999993 359.999920 -50.000002
v 479.999987 319.999919 -90.000002
v 479.999993 359.999920 -90.000002
vt 0.203125 0.953125
vt 0.210938 0.953125
vt 0.210938 0.953125
vt 0.226563 0.953125
vt 0.234375 0.953125
vt 0.234375 0.953125
vt 0.250000 0.953125
vt 0.226562 0.953125
vt 0.203125 0.984375
vt 0.210938 0.984375
vt 0.210938 0.984375
vt 0.210938 0.984375
vt 0.226562 0.984375
vt 0.226562 0.984375
vt 0.226562 0.984375
vt 0.226563 0.984375
vt 0.234375 0.984375
vt 0.234375 0.984375
vt 0.242187 0.984375
vt 0.250000 0.984375
vt 0.210938 1.000000
vt 0.226562 1.000000
vt 0.226562 1.000000
vt 0.242187 1.000000
vn -1.000000 0.000000 0.000000
vn -1.000000 0.000000 0.000000
vn -1.000000 0.000000 0.000000
vn -1.000000 0.000000 0.000000
vn 0.000000 0.000000 -1.000000
vn 0.000000 0.000000 -1.000000
vn 0.000000 0.000000 -1.000000
vn 0.000000 0.000000 -1.000000
vn 1.000000 -0.000000 -0.000000
vn 1.000000 -0.000000 -0.000000
vn 1.000000 -0.000000 -0.000000
vn 1.000000 -0.000000 -0.000000
vn 0.000000 -0.000000 1.000000
vn 0.000000 -0.000000 1.000000
vn 0.000000 -0.000000 1.000000
vn 0.000000 -0.000000 1.000000
vn -0.000000 -1.000000 -0.000000
vn -0.000000 -1.000000 -0.000000
vn -0.000000 -1.000000 -0.000000
vn -0.000000 -1.000000 -0.000000
vn 0.000000 1.000000 0.000000
vn 0.000000 1.000000 0.000000
vn 0.000000 1.000000 0.000000
vn 0.000000 1.000000 0.000000
s off
g LEar
usemtl HeadSG
f 17/38/49 18/49/50 20/52/51 19/39/52
f 19/34/53 20/42/54 24/41/55 23/33/56
f 23/35/57 24/43/58 22/47/59 21/36/60
f 21/37/61 22/50/62 18/46/63 17/40/64
f 19/56/65 23/51/66 21/45/67 17/54/68
f 24/44/69 20/53/70 18/55/71 22/48/72
g default
v 519.999995 199.999912 50.000000
v 520.000005 259.999916 50.000000
v 519.999995 199.999912 -50.000000
v 520.000005 259.999916 -50.000000
v 580.000000 199.999902 50.000000
v 580.000009 259.999905 50.000000
v 580.000000 199.999902 -50.000000
v 580.000009 259.999905 -50.000000
vt 0.085938 0.218750
vt 0.125000 0.218750
vt 0.023438 0.218750
vt 0.062500 0.218750
vt 0.000000 0.218750
vt 0.125000 0.265625
vt 0.000000 0.265625
vt 0.023438 0.265625
vt 0.062500 0.265625
vt 0.062500 0.265625
vt 0.085938 0.265625
vt 0.101562 0.265625
vt 0.023438 0.312500
vt 0.062500 0.312500
vt 0.062500 0.312500
vt 0.101562 0.312500
vn -1.000000 0.000000 0.000000
vn -1.000000 0.000000 0.000000
vn -1.000000 0.000000 0.000000
vn -1.000000 0.000000 0.000000
vn 0.000000 -0.000000 -1.000000
vn 0.000000 -0.000000 -1.000000
vn 0.000000 -0.000000 -1.000000
vn 0.000000 -0.000000 -1.000000
vn 1.000000 -0.000000 -0.000000
vn 1.000000 -0.000000 -0.000000
vn 1.000000 -0.000000 -0.000000
vn 1.000000 -0.000000 -0.000000
vn 0.000000 -0.000000 1.000000
vn 0.000000 -0.000000 1.000000
vn 0.000000 -0.000000 1.000000
vn 0.000000 -0.000000 1.000000
vn -0.000000 -1.000000 -0.000000
vn -0.000000 -1.000000 -0.000000
vn -0.000000 -1.000000 -0.000000
vn -0.000000 -1.000000 -0.000000
vn 0.000000 1.000000 0.000000
vn 0.000000 1.000000 0.000000
vn 0.000000 1.000000 0.000000
vn 0.000000 1.000000 0.000000
s off
g Nose
usemtl HeadSG
f 25/58/73 26/62/74 28/67/75 27/57/76
f 27/57/77 28/67/78 32/66/79 31/60/80
f 31/60/81 32/66/82 30/64/83 29/59/84
f 29/59/85 30/64/86 26/63/87 25/61/88
f 27/70/89 31/65/90 29/68/91 25/72/92
f 32/66/93 28/71/94 26/69/95 30/64/96
g default
v 139.999999 359.999967 120.000008
v 380.000014 359.999943 120.000008
v 139.999999 359.999967 -120.000008
v 380.000014 359.999943 -120.000008
v 139.999986 159.999967 120.000008
v 379.999994 159.999949 120.000008
v 139.999986 159.999967 -120.000008
v 379.999994 159.999949 -120.000008
vt 0.382812 0.656250
vt 0.476562 0.656250
vt 0.554688 0.656250
vt 0.648438 0.656250
vt 0.304688 0.656250
vt 0.648438 0.843750
vt 0.304688 0.843750
vt 0.382812 0.843750
vt 0.476562 0.843750
vt 0.476562 0.843750
vt 0.554688 0.843750
vt 0.570312 0.843750
vt 0.382813 1.000000
vt 0.476562 1.000000
vt 0.476562 1.000000
vt 0.570312 1.000000
vn 0.000000 1.000000 0.000000
vn 0.000000 1.000000 0.000000
vn 0.000000 1.000000 0.000000
vn 0.000000 1.000000 0.000000
vn 0.000000 0.000000 -1.000000
vn 0.000000 0.000000 -1.000000
vn 0.000000 0.000000 -1.000000
vn 0.000000 0.000000 -1.000000
vn -0.000000 -1.000000 0.000000
vn -0.000000 -1.000000 0.000000
vn -0.000000 -1.000000 0.000000
vn -0.000000 -1.000000 0.000000
vn 0.000000 0.000000 1.000000
vn 0.000000 0.000000 1.000000
vn 0.000000 0.000000 1.000000
vn 0.000000 0.000000 1.000000
vn -1.000000 0.000000 -0.000000
vn -1.000000 0.000000 -0.000000
vn -1.000000 0.000000 -0.000000
vn -1.000000 0.000000 -0.000000
vn 1.000000 -0.000000 0.000000
vn 1.000000 -0.000000 0.000000
vn 1.000000 -0.000000 0.000000
vn 1.000000 -0.000000 0.000000
s off
g Body1
usemtl HeadSG
f 33/76/97 34/78/98 36/83/99 35/75/100
f 35/75/101 36/83/102 40/82/103 39/74/104
f 39/74/105 40/82/106 38/80/107 37/73/108
f 37/73/109 38/80/110 34/79/111 33/77/112
f 35/86/113 39/81/114 37/84/115 33/88/116
f 40/82/117 36/87/118 34/85/119 38/80/120
g default
v -139.999992 380.000016 140.000000
v 140.000008 379.999984 140.000000
v -139.999992 380.000016 -140.000000
v 140.000008 379.999984 -140.000000
v -140.000008 160.000009 140.000000
v 139.999992 159.999984 140.000000
v -140.000008 160.000009 -140.000000
v 139.999992 159.999984 -140.000000
vt 0.281250 0.312500
vt 0.390625 0.312500
vt 0.085938 0.312500
vt 0.195312 0.312500
vt 0.000000 0.312500
vt 0.390625 0.531250
vt 0.000000 0.531250
vt 0.085938 0.531250
vt 0.195312 0.531250
vt 0.195312 0.531250
vt 0.281250 0.531250
vt 0.304687 0.531250
vt 0.085938 0.703125
vt 0.195312 0.703125
vt 0.195312 0.703125
vt 0.304688 0.703125
vn 0.000000 1.000000 0.000000
vn 0.000000 1.000000 0.000000
vn 0.000000 1.000000 0.000000
vn 0.000000 1.000000 0.000000
vn 0.000000 0.000000 -1.000000
vn 0.000000 0.000000 -1.000000
vn 0.000000 0.000000 -1.000000
vn 0.000000 0.000000 -1.000000
vn -0.000000 -1.000000 0.000000
vn -0.000000 -1.000000 0.000000
vn -0.000000 -1.000000 0.000000
vn -0.000000 -1.000000 0.000000
vn 0.000000 0.000000 1.000000
vn 0.000000 0.000000 1.000000
vn 0.000000 0.000000 1.000000
vn 0.000000 0.000000 1.000000
vn -1.000000 0.000000 -0.000000
vn -1.000000 0.000000 -0.000000
vn -1.000000 0.000000 -0.000000
vn -1.000000 0.000000 -0.000000
vn 1.000000 -0.000000 0.000000
vn 1.000000 -0.000000 0.000000
vn 1.000000 -0.000000 0.000000
vn 1.000000 -0.000000 0.000000
s off
g Body2
usemtl HeadSG
f 41/90/121 42/94/122 44/99/123 43/89/124
f 43/89/125 44/99/126 48/98/127 47/92/128
f 47/92/129 48/98/130 46/96/131 45/91/132
f 45/91/133 46/96/134 42/95/135 41/93/136
f 43/102/137 47/97/138 45/100/139 41/104/140
f 48/98/141 44/103/142 42/101/143 46/96/144
g default
v -120.000000 -0.000012 -50.000029
v -120.000000 199.999994 -50.000012
v -120.000000 -0.000000 -130.000029
v -120.000000 200.000000 -130.000014
v 40.000000 -0.000012 -50.000029
v 40.000000 199.999994 -50.000012
v 40.000000 -0.000000 -130.000029
v 40.000000 200.000000 -130.000014
vt 0.546875 0.375000
vt 0.578125 0.375000
vt 0.453125 0.375000
vt 0.484375 0.375000
vt 0.390625 0.375000
vt 0.578125 0.531250
vt 0.390625 0.531250
vt 0.453125 0.531250
vt 0.484375 0.531250
vt 0.484375 0.531250
vt 0.515625 0.531250
vt 0.546875 0.531250
vt 0.453125 0.656250
vt 0.484375 0.656250
vt 0.484375 0.656250
vt 0.515625 0.656250
vn -1.000000 -0.000000 0.000000
vn -1.000000 -0.000000 0.000000
vn -1.000000 -0.000000 0.000000
vn -1.000000 -0.000000 0.000000
vn 0.000000 0.000000 -1.000000
vn 0.000000 0.000000 -1.000000
vn 0.000000 0.000000 -1.000000
vn 0.000000 0.000000 -1.000000
vn 1.000000 -0.000000 0.000000
vn 1.000000 -0.000000 0.000000
vn 1.000000 -0.000000 0.000000
vn 1.000000 -0.000000 0.000000
vn 0.000000 -0.000000 1.000000
vn 0.000000 -0.000000 1.000000
vn 0.000000 -0.000000 1.000000
vn 0.000000 -0.000000 1.000000
vn 0.000000 -1.000000 -0.000000
vn 0.000000 -1.000000 -0.000000
vn 0.000000 -1.000000 -0.000000
vn 0.000000 -1.000000 -0.000000
vn 0.000000 1.000000 0.000000
vn 0.000000 1.000000 0.000000
vn 0.000000 1.000000 0.000000
vn 0.000000 1.000000 0.000000
s off
g LegLB
usemtl HeadSG
f 49/106/145 50/110/146 52/116/147 51/105/148
f 51/105/149 52/116/150 56/114/151 55/108/152
f 55/108/153 56/114/154 54/112/155 53/107/156
f 53/107/157 54/112/158 50/111/159 49/109/160
f 51/118/161 55/113/162 53/115/163 49/120/164
f 56/114/165 52/119/166 50/117/167 54/112/168
g default
v -120.000000 0.000006 129.999971
v -120.000000 200.000012 129.999988
v -120.000000 0.000012 49.999973
v -120.000000 200.000012 49.999988
v 40.000000 0.000006 129.999971
v 40.000000 200.000012 129.999988
v 40.000000 0.000012 49.999973
v 40.000000 200.000012 49.999988
vt 0.546875 0.375000
vt 0.578125 0.375000
vt 0.453125 0.375000
vt 0.484375 0.375000
vt 0.390625 0.375000
vt 0.578125 0.531250
vt 0.390625 0.531250
vt 0.453125 0.531250
vt 0.484375 0.531250
vt 0.484375 0.531250
vt 0.515625 0.531250
vt 0.546875 0.531250
vt 0.453125 0.656250
vt 0.484375 0.656250
vt 0.484375 0.656250
vt 0.515625 0.656250
vn -1.000000 -0.000000 0.000000
vn -1.000000 -0.000000 0.000000
vn -1.000000 -0.000000 0.000000
vn -1.000000 -0.000000 0.000000
vn 0.000000 0.000000 -1.000000
vn 0.000000 0.000000 -1.000000
vn 0.000000 0.000000 -1.000000
vn 0.000000 0.000000 -1.000000
vn 1.000000 -0.000000 0.000000
vn 1.000000 -0.000000 0.000000
vn 1.000000 -0.000000 0.000000
vn 1.000000 -0.000000 0.000000
vn 0.000000 -0.000000 1.000000
vn 0.000000 -0.000000 1.000000
vn 0.000000 -0.000000 1.000000
vn 0.000000 -0.000000 1.000000
vn 0.000000 -1.000000 -0.000000
vn 0.000000 -1.000000 -0.000000
vn 0.000000 -1.000000 -0.000000
vn 0.000000 -1.000000 -0.000000
vn 0.000000 1.000000 0.000000
vn 0.000000 1.000000 0.000000
vn 0.000000 1.000000 0.000000
vn 0.000000 1.000000 0.000000
s off
g LegRB
usemtl HeadSG
f 57/122/169 58/126/170 60/132/171 59/121/172
f 59/121/173 60/132/174 64/130/175 63/124/176
f 63/124/177 64/130/178 62/128/179 61/123/180
f 61/123/181 62/128/182 58/127/183 57/125/184
f 59/134/185 63/129/186 61/131/187 57/136/188
f 64/130/189 60/135/190 58/133/191 62/128/192
g default
v 199.999946 -0.000048 -30.000003
v 199.999960 199.999952 -30.000003
v 199.999953 -0.000048 -110.000003
v 199.999975 199.999952 -110.000003
v 319.999954 -0.000060 -29.999989
v 319.999972 199.999940 -29.999989
v 319.999961 -0.000060 -109.999989
v 319.999979 199.999940 -109.999989
vt 0.515625 0.125000
vt 0.546875 0.125000
vt 0.437500 0.125000
vt 0.468750 0.125000
vt 0.390625 0.125000
vt 0.546875 0.281250
vt 0.390625 0.281250
vt 0.437500 0.281250
vt 0.468750 0.281250
vt 0.468750 0.281250
vt 0.500000 0.281250
vt 0.515625 0.281250
vt 0.437500 0.375000
vt 0.468750 0.375000
vt 0.468750 0.375000
vt 0.500000 0.375000
vn -1.000000 0.000000 -0.000000
vn -1.000000 0.000000 -0.000000
vn -1.000000 0.000000 -0.000000
vn -1.000000 0.000000 -0.000000
vn 0.000000 -0.000000 -1.000000
vn 0.000000 -0.000000 -1.000000
vn 0.000000 -0.000000 -1.000000
vn 0.000000 -0.000000 -1.000000
vn 1.000000 -0.000000 0.000000
vn 1.000000 -0.000000 0.000000
vn 1.000000 -0.000000 0.000000
vn 1.000000 -0.000000 0.000000
vn -0.000000 -0.000000 1.000000
vn -0.000000 -0.000000 1.000000
vn -0.000000 -0.000000 1.000000
vn -0.000000 -0.000000 1.000000
vn -0.000000 -1.000000 -0.000000
vn -0.000000 -1.000000 -0.000000
vn -0.000000 -1.000000 -0.000000
vn -0.000000 -1.000000 -0.000000
vn 0.000000 1.000000 0.000000
vn 0.000000 1.000000 0.000000
vn 0.000000 1.000000 0.000000
vn 0.000000 1.000000 0.000000
s off
g LegLF
usemtl HeadSG
f 65/138/193 66/142/194 68/148/195 67/137/196
f 67/137/197 68/148/198 72/146/199 71/140/200
f 71/140/201 72/146/202 70/144/203 69/139/204
f 69/139/205 70/144/206 66/143/207 65/141/208
f 67/150/209 71/145/210 69/147/211 65/152/212
f 72/146/213 68/151/214 66/149/215 70/144/216
g default
v 199.999982 -0.000036 109.999997
v 200.000000 199.999964 109.999997
v 199.999996 -0.000036 29.999995
v 200.000010 199.999964 29.999995
v 319.999993 -0.000048 110.000007
v 320.000011 199.999952 110.000007
v 320.000000 -0.000048 30.000009
v 320.000018 199.999952 30.000009
vt 0.515625 0.125000
vt 0.546875 0.125000
vt 0.437500 0.125000
vt 0.468750 0.125000
vt 0.390625 0.125000
vt 0.546875 0.281250
vt 0.390625 0.281250
vt 0.437500 0.281250
vt 0.468750 0.281250
vt 0.468750 0.281250
vt 0.500000 0.281250
vt 0.515625 0.281250
vt 0.437500 0.375000
vt 0.468750 0.375000
vt 0.468750 0.375000
vt 0.500000 0.375000
vn -1.000000 0.000000 -0.000000
vn -1.000000 0.000000 -0.000000
vn -1.000000 0.000000 -0.000000
vn -1.000000 0.000000 -0.000000
vn 0.000000 0.000000 -1.000000
vn 0.000000 0.000000 -1.000000
vn 0.000000 0.000000 -1.000000
vn 0.000000 0.000000 -1.000000
vn 1.000000 -0.000000 0.000000
vn 1.000000 -0.000000 0.000000
vn 1.000000 -0.000000 0.000000
vn 1.000000 -0.000000 0.000000
vn -0.000000 -0.000000 1.000000
vn -0.000000 -0.000000 1.000000
vn -0.000000 -0.000000 1.000000
vn -0.000000 -0.000000 1.000000
vn -0.000000 -1.000000 -0.000000
vn -0.000000 -1.000000 -0.000000
vn -0.000000 -1.000000 -0.000000
vn -0.000000 -1.000000 -0.000000
vn 0.000000 1.000000 0.000000
vn 0.000000 1.000000 0.000000
vn 0.000000 1.000000 0.000000
vn 0.000000 1.000000 0.000000
s off
g LegRF
usemtl HeadSG
f 73/154/217 74/158/218 76/164/219 75/153/220
f 75/153/221 76/164/222 80/162/223 79/156/224
f 79/156/225 80/162/226 78/160/227 77/155/228
f 77/155/229 78/160/230 74/159/231 73/157/232
f 75/166/233 79/161/234 77/163/235 73/168/236
f 80/162/237 76/167/238 74/165/239 78/160/240
