# Blender 4.3.0
# www.blender.org
mtllib goat.mtl
o BodyUp
v -0.400000 -1.500000 1.100000
v -0.400000 1.300000 1.100000
v -0.400000 -1.500000 -1.100000
v -0.400000 1.300000 -1.100000
v 1.800000 -1.500000 1.100000
v 1.800000 1.300000 1.100000
v 1.800000 -1.500000 -1.100000
v 1.800000 1.300000 -1.100000
vn -1.0000 -0.0000 -0.0000
vn -0.0000 -0.0000 -1.0000
vn 1.0000 -0.0000 -0.0000
vn -0.0000 -0.0000 1.0000
vn -0.0000 -1.0000 -0.0000
vn -0.0000 1.0000 -0.0000
vt 0.687500 0.171875
vt 0.687500 0.390625
vt 0.515625 0.390625
vt 0.515625 0.171875
vt 0.343750 0.390625
vt 0.343750 0.171875
vt 0.171875 0.390625
vt 0.171875 0.171875
vt 0.000000 0.390625
vt 0.000000 0.171875
vt 0.343750 0.562500
vt 0.515625 0.562500
vt 0.171875 0.562500
s 1
usemtl Goat
f 1/1/1 2/2/1 4/3/1 3/4/1
f 3/4/2 4/3/2 8/5/2 7/6/2
f 7/6/3 8/5/3 6/7/3 5/8/3
f 5/8/4 6/7/4 2/9/4 1/10/4
f 3/11/5 7/5/5 5/3/5 1/12/5
f 8/5/6 4/11/6 2/13/6 6/7/6
o Head
v 1.078017 1.292648 0.500000
v 2.224830 2.095656 0.500000
v 1.078018 1.292649 -0.500000
v 2.224830 2.095656 -0.500000
v 2.225170 -0.345656 0.500000
v 3.371983 0.457351 0.500000
v 2.225170 -0.345656 -0.500000
v 3.371983 0.457351 -0.500000
vn -0.5736 0.8192 -0.0000
vn -0.0000 -0.0000 -1.0000
vn 0.5736 -0.8192 -0.0000
vn -0.0000 -0.0000 1.0000
vn -0.8192 -0.5736 -0.0000
vn 0.8192 0.5736 -0.0000
vt 1.000000 0.015625
vt 1.000000 0.125000
vt 0.921875 0.125000
vt 0.921875 0.015625
vt 0.765625 0.125000
vt 0.765625 0.015625
vt 0.687500 0.125000
vt 0.687500 0.015625
vt 0.531250 0.125000
vt 0.531250 0.015625
vt 0.765625 0.281250
vt 0.765625 0.125000
vt 0.843750 0.125000
vt 0.843750 0.281250
vt 0.765625 0.281250
vt 0.687500 0.281250
s 1
usemtl Goat
f 9/14/7 10/15/7 12/16/7 11/17/7
f 11/17/8 12/16/8 16/18/8 15/19/8
f 15/19/9 16/18/9 14/20/9 13/21/9
f 13/21/10 14/20/10 10/22/10 9/23/10
f 11/24/11 15/25/11 13/26/11 9/27/11
f 16/18/12 12/28/12 10/29/12 14/20/12
o HornR
v 1.800000 1.500000 0.490000
v 1.800000 2.899999 0.490000
v 1.800000 1.500000 0.090000
v 1.800000 2.899999 0.090000
v 2.200000 1.500000 0.490000
v 2.200000 2.899999 0.490000
v 2.200000 1.500000 0.090000
v 2.200000 2.899999 0.090000
vn -1.0000 -0.0000 -0.0000
vn -0.0000 -0.0000 -1.0000
vn 1.0000 -0.0000 -0.0000
vn -0.0000 -0.0000 1.0000
vn -0.0000 -1.0000 -0.0000
vn -0.0000 1.0000 -0.0000
vt 0.312500 -0.000000
vt 0.312500 0.109375
vt 0.281250 0.109375
vt 0.281250 0.000000
vt 0.250000 0.109375
vt 0.250000 0.000000
vt 0.218750 0.109375
vt 0.218750 0.000000
vt 0.187500 0.109375
vt 0.187500 0.000000
vt 0.281250 0.109375
vt 0.281250 0.140625
vt 0.250000 0.140625
vt 0.250000 0.109375
vt 0.250000 0.140625
vt 0.218750 0.140625
s 1
usemtl Goat
f 17/30/13 18/31/13 20/32/13 19/33/13
f 19/33/14 20/32/14 24/34/14 23/35/14
f 23/35/15 24/34/15 22/36/15 21/37/15
f 21/37/16 22/36/16 18/38/16 17/39/16
f 19/40/17 23/41/17 21/42/17 17/43/17
f 24/34/18 20/44/18 18/45/18 22/36/18
o EarL
v 2.000000 1.525000 -0.500000
v 2.000000 1.925000 -0.500000
v 2.000000 1.525000 -1.100000
v 2.000000 1.925000 -1.100000
v 2.199999 1.525000 -0.500000
v 2.200000 1.925000 -0.500000
v 2.199999 1.525000 -1.100000
v 2.200000 1.925000 -1.100000
vn -1.0000 -0.0000 -0.0000
vn -0.0000 -0.0000 -1.0000
vn 1.0000 -0.0000 -0.0000
vn -0.0000 -0.0000 1.0000
vn -0.0000 -1.0000 -0.0000
vn -0.0000 1.0000 -0.0000
vt 0.109375 -0.000000
vt 0.109375 0.031250
vt 0.156250 0.031250
vt 0.156250 0.000000
vt 0.046875 0.000000
vt 0.046875 0.031250
vt 0.031250 0.031250
vt 0.031250 0.000000
vt 0.093750 0.031250
vt 0.093750 0.000000
vt 0.109375 0.000000
vt 0.109375 0.031250
vt 0.093750 0.031250
vt 0.093750 0.000000
vt 0.093750 0.031250
vt 0.093750 0.046875
vt 0.140625 0.046875
vt 0.140625 0.031250
vt 0.046875 0.046875
vt 0.093750 0.046875
s 1
usemtl Goat
f 25/46/19 26/47/19 28/48/19 27/49/19
f 27/50/20 28/51/20 32/52/20 31/53/20
f 31/50/21 32/51/21 30/54/21 29/55/21
f 29/56/22 30/57/22 26/58/22 25/59/22
f 27/60/23 31/61/23 29/62/23 25/63/23
f 32/51/24 28/64/24 26/65/24 30/54/24
o LegBL
v -1.200000 -2.300000 -0.099999
v -1.200000 -1.100000 -0.100000
v -1.200000 -2.300000 -0.700000
v -1.200000 -1.100000 -0.700000
v -0.600000 -2.300000 -0.099999
v -0.600000 -1.100000 -0.100000
v -0.600000 -2.300000 -0.700000
v -0.600000 -1.100000 -0.700000
vn -1.0000 -0.0000 -0.0000
vn -0.0000 -0.0000 -1.0000
vn 1.0000 -0.0000 -0.0000
vn -0.0000 -0.0000 1.0000
vn -0.0000 -1.0000 -0.0000
vn -0.0000 1.0000 -0.0000
vt 0.953125 0.406250
vt 0.953125 0.500000
vt 0.906250 0.500000
vt 0.906250 0.406250
vt 0.859375 0.500000
vt 0.859375 0.406250
vt 0.812500 0.500000
vt 0.812500 0.406250
vt 0.765625 0.500000
vt 0.765625 0.406250
vt 0.859375 0.546875
vt 0.906250 0.546875
vt 0.812500 0.546875
s 1
usemtl Goat
f 33/66/25 34/67/25 36/68/25 35/69/25
f 35/69/26 36/68/26 40/70/26 39/71/26
f 39/71/27 40/70/27 38/72/27 37/73/27
f 37/73/28 38/72/28 34/74/28 33/75/28
f 35/76/29 39/70/29 37/68/29 33/77/29
f 40/70/30 36/76/30 34/78/30 38/72/30
o LegFL
v 0.800000 -2.300000 -0.100000
v 0.800000 -0.300000 -0.100000
v 0.800000 -2.300000 -0.700000
v 0.800000 -0.300000 -0.700000
v 1.400000 -2.300000 -0.100000
v 1.400000 -0.300000 -0.100000
v 1.400000 -2.300000 -0.700000
v 1.400000 -0.300000 -0.700000
vn -1.0000 -0.0000 -0.0000
vn -0.0000 -0.0000 -1.0000
vn 1.0000 -0.0000 -0.0000
vn -0.0000 -0.0000 1.0000
vn -0.0000 -1.0000 -0.0000
vn -0.0000 1.0000 -0.0000
vt 0.953125 0.765625
vt 0.953125 0.921875
vt 0.906250 0.921875
vt 0.906250 0.765625
vt 0.859375 0.921875
vt 0.859375 0.765625
vt 0.812500 0.921875
vt 0.812500 0.765625
vt 0.765625 0.921875
vt 0.765625 0.765625
vt 0.859375 0.968750
vt 0.906250 0.968750
vt 0.812500 0.968750
s 1
usemtl Goat
f 41/79/31 42/80/31 44/81/31 43/82/31
f 43/82/32 44/81/32 48/83/32 47/84/32
f 47/84/33 48/83/33 46/85/33 45/86/33
f 45/86/34 46/85/34 42/87/34 41/88/34
f 43/89/35 47/83/35 45/81/35 41/90/35
f 48/83/36 44/89/36 42/91/36 46/85/36
o HornL
v 1.800000 1.500000 -0.090000
v 1.800000 2.899999 -0.090000
v 1.800000 1.500000 -0.490000
v 1.800000 2.899999 -0.490000
v 2.200000 1.500000 -0.090000
v 2.200000 2.899999 -0.090000
v 2.200000 1.500000 -0.490000
v 2.200000 2.899999 -0.490000
vn -1.0000 -0.0000 -0.0000
vn -0.0000 -0.0000 -1.0000
vn 1.0000 -0.0000 -0.0000
vn -0.0000 -0.0000 1.0000
vn -0.0000 -1.0000 -0.0000
vn -0.0000 1.0000 -0.0000
vt 0.312500 -0.000000
vt 0.312500 0.109375
vt 0.281250 0.109375
vt 0.281250 0.000000
vt 0.250000 0.109375
vt 0.250000 0.000000
vt 0.218750 0.109375
vt 0.218750 0.000000
vt 0.187500 0.109375
vt 0.187500 0.000000
vt 0.281250 0.109375
vt 0.281250 0.140625
vt 0.250000 0.140625
vt 0.250000 0.109375
vt 0.250000 0.140625
vt 0.218750 0.140625
s 1
usemtl Goat
f 49/92/37 50/93/37 52/94/37 51/95/37
f 51/95/38 52/94/38 56/96/38 55/97/38
f 55/97/39 56/96/39 54/98/39 53/99/39
f 53/99/40 54/98/40 50/100/40 49/101/40
f 51/102/41 55/103/41 53/104/41 49/105/41
f 56/96/42 52/106/42 50/107/42 54/98/42
o Body
v 1.600000 1.100000 -0.900000
v 1.600000 -1.100000 -0.900000
v 1.600000 1.100000 0.900000
v 1.600000 -1.100000 0.900000
v -1.600000 1.100000 -0.900000
v -1.600000 -1.100000 -0.900000
v -1.600000 1.100000 0.900000
v -1.600000 -1.100000 0.900000
vn -0.0000 1.0000 -0.0000
vn -0.0000 -0.0000 1.0000
vn -1.0000 -0.0000 -0.0000
vn -0.0000 -1.0000 -0.0000
vn 1.0000 -0.0000 -0.0000
vn -0.0000 -0.0000 -1.0000
vt 0.406250 0.734375
vt 0.406250 0.984375
vt 0.265625 0.984375
vt 0.265625 0.734375
vt 0.265625 0.562500
vt 0.015625 0.734375
vt 0.015625 0.562500
vt 0.796875 0.562500
vt 0.796875 0.734375
vt 0.656250 0.734375
vt 0.656250 0.562500
vt 0.406250 0.984375
vt 0.406250 0.734375
vt 0.546875 0.734375
vt 0.546875 0.984375
vt 0.406250 0.562500
s 1
usemtl Goat
f 57/108/43 61/109/43 63/110/43 59/111/43
f 60/112/44 59/111/44 63/113/44 64/114/44
f 64/115/45 63/116/45 61/117/45 62/118/45
f 62/119/46 58/120/46 60/121/46 64/122/46
f 58/123/47 57/108/47 59/111/47 60/112/47
f 62/118/48 61/117/48 57/108/48 58/123/48
o EarR
v 2.000000 1.524999 1.100000
v 2.000000 1.924999 1.100000
v 2.000000 1.524999 0.500000
v 2.000000 1.925000 0.500000
v 2.199999 1.524999 1.100000
v 2.200000 1.924999 1.100000
v 2.199999 1.524999 0.500000
v 2.200000 1.925000 0.500000
vn -1.0000 -0.0000 -0.0000
vn -0.0000 -0.0000 -1.0000
vn 1.0000 -0.0000 -0.0000
vn -0.0000 -0.0000 1.0000
vn -0.0000 -1.0000 -0.0000
vn -0.0000 1.0000 -0.0000
vt 0.156250 -0.000000
vt 0.156250 0.031250
vt 0.109375 0.031250
vt 0.109375 0.000000
vt 0.093750 0.031250
vt 0.093750 0.000000
vt 0.046875 0.031250
vt 0.046875 0.000000
vt 0.031250 0.031250
vt 0.031250 0.000000
vt 0.140625 0.031250
vt 0.140625 0.046875
vt 0.093750 0.046875
vt 0.093750 0.031250
vt 0.093750 0.046875
vt 0.046875 0.046875
s 1
usemtl Goat
f 65/124/49 66/125/49 68/126/49 67/127/49
f 67/127/50 68/126/50 72/128/50 71/129/50
f 71/129/51 72/128/51 70/130/51 69/131/51
f 69/131/52 70/130/52 66/132/52 65/133/52
f 67/134/53 71/135/53 69/136/53 65/137/53
f 72/128/54 68/138/54 66/139/54 70/130/54
o LegBR
v -1.200000 -2.300000 0.700000
v -1.200000 -1.100000 0.700000
v -1.200000 -2.300000 0.100000
v -1.200000 -1.100000 0.100000
v -0.600000 -2.300000 0.700000
v -0.600000 -1.100000 0.700000
v -0.600000 -2.300000 0.100000
v -0.600000 -1.100000 0.100000
vn -1.0000 -0.0000 -0.0000
vn -0.0000 -0.0000 -1.0000
vn 1.0000 -0.0000 -0.0000
vn -0.0000 -0.0000 1.0000
vn -0.0000 -1.0000 -0.0000
vn -0.0000 1.0000 -0.0000
vt 0.750000 0.406250
vt 0.750000 0.500000
vt 0.703125 0.500000
vt 0.703125 0.406250
vt 0.656250 0.500000
vt 0.656250 0.406250
vt 0.609375 0.500000
vt 0.609375 0.406250
vt 0.562500 0.500000
vt 0.562500 0.406250
vt 0.656250 0.546875
vt 0.703125 0.546875
vt 0.609375 0.546875
s 1
usemtl Goat
f 73/140/55 74/141/55 76/142/55 75/143/55
f 75/143/56 76/142/56 80/144/56 79/145/56
f 79/145/57 80/144/57 78/146/57 77/147/57
f 77/147/58 78/146/58 74/148/58 73/149/58
f 75/150/59 79/144/59 77/142/59 73/151/59
f 80/144/60 76/150/60 74/152/60 78/146/60
o LegFR
v 0.799999 -2.299999 0.700000
v 0.800000 -0.300000 0.700000
v 0.799999 -2.300000 0.100000
v 0.800000 -0.300000 0.100000
v 1.399999 -2.300000 0.700000
v 1.400000 -0.300000 0.700000
v 1.399999 -2.300000 0.100000
v 1.400000 -0.300000 0.100000
vn -1.0000 -0.0000 -0.0000
vn -0.0000 -0.0000 -1.0000
vn 1.0000 -0.0000 -0.0000
vn -0.0000 -0.0000 1.0000
vn -0.0000 -1.0000 -0.0000
vn -0.0000 1.0000 -0.0000
vt 0.734375 0.765625
vt 0.734375 0.921875
vt 0.687500 0.921875
vt 0.687500 0.765625
vt 0.640625 0.921875
vt 0.640625 0.765625
vt 0.593750 0.921875
vt 0.593750 0.765625
vt 0.546875 0.921875
vt 0.546875 0.765625
vt 0.640625 0.968750
vt 0.687500 0.968750
vt 0.593750 0.968750
s 1
usemtl Goat
f 81/153/61 82/154/61 84/155/61 83/156/61
f 83/156/62 84/155/62 88/157/62 87/158/62
f 87/158/63 88/157/63 86/159/63 85/160/63
f 85/160/64 86/159/64 82/161/64 81/162/64
f 83/163/65 87/157/65 85/155/65 81/164/65
f 88/157/66 84/163/66 82/165/66 86/159/66
o Beard
v 2.000000 -0.900000 0.000000
v 3.000000 -0.900000 0.000000
v 2.000000 0.500000 -0.000000
v 3.000000 0.500000 -0.000000
vn -0.0000 -0.0000 1.0000
vt 0.437500 0.000000
vt 0.515625 0.000000
vt 0.515625 0.109375
vt 0.437500 0.109375
s 1
usemtl Goat
f 89/166/67 90/167/67 92/168/67 91/169/67
